# xmcd
#
# Track frame offsets:
#	150
#	13581
#	32692
#	56641
#	73503
#	89698
#	109801
#	128912
#	146265
#
# Disc length: 2302 seconds
#
# Revision: 1180512989
# Processed by: cddbd v1.5.2PL0 Copyright (c) Steve Scherf et al.
# Submitted via: EZCDAudioConverter 8.1.0.1
#
DISCID=7908fc09
DTITLE=Lydia Loveless - Indestructible Machine
DYEAR=2011
DGENRE=Country
TTITLE0=Bad Way To Go
TTITLE1=Can't Change Me
TTITLE2=More Like Them
TTITLE3=How Many Women
TTITLE4=Jesus Was A Wino
TTITLE5=Steve Earle
TTITLE6=Learn To Say No
TTITLE7=Do Right
TTITLE8=Crazy
EXTD=
EXTT0=
EXTT1=
EXTT2=
EXTT3=
EXTT4=
EXTT5=
EXTT6=
EXTT7=
EXTT8=
PLAYORDER=
